<?xml version="1.0" ?><!-- Uploaded to: SVG Repo, www.svgrepo.com, Generator: SVG Repo Mixer Tools -->
<svg width="800px" height="800px" viewBox="0 0 48 48" id="Layer_1" version="1.1" xml:space="preserve" xmlns="http://www.w3.org/2000/svg" xmlns:xlink="http://www.w3.org/1999/xlink"><style type="text/css">
	.st0{stroke:#8c9690;stroke-width:4;stroke-opacity:0.5}
</style><path class="st0" d="M7.5,41.5h11h11h11c0.276,0,0.5-0.224,0.5-0.5V30c0-0.276-0.224-0.5-0.5-0.5H30V24c0-0.276-0.224-0.5-0.5-0.5  h-11c-0.276,0-0.5,0.224-0.5,0.5v8H7.5C7.224,32,7,32.224,7,32.5V41C7,41.276,7.224,41.5,7.5,41.5z M40,30.5v10H30v-10H40z M19,24.5  h10V30v10.5H19v-8V24.5z M8,33h10v7.5H8V33z"/><path class="st0" d="M27.596,15.365h0.287c0.909,0,1.766-0.354,2.416-1c0.644-0.647,0.997-1.504,0.997-2.413  c0-1.441-0.922-2.713-2.244-3.196l0.081-0.551v0c0.06-0.396-0.055-0.796-0.315-1.098C28.559,6.804,28.18,6.63,27.78,6.63h-7.62  c-0.405,0-0.788,0.175-1.05,0.479c-0.26,0.301-0.374,0.701-0.314,1.096l0.084,0.566c-0.437,0.167-0.838,0.427-1.178,0.766  c-0.644,0.644-0.998,1.501-0.998,2.415c0,1.882,1.531,3.413,3.413,3.413h0.218c0.456,0.657,1.092,1.179,1.846,1.515v2.43  c-1.153,0.25-2.021,1.275-2.021,2.502c0,0.276,0.224,0.5,0.5,0.5h6.682c0.276,0,0.5-0.224,0.5-0.5c0-1.252-0.903-2.292-2.091-2.515  v-2.417C26.503,16.546,27.141,16.023,27.596,15.365z M23.18,17.197c0.255,0.044,0.514,0.073,0.79,0.073  c0.279,0,0.534-0.029,0.78-0.072v2.052h-1.57V17.197z M30.297,11.952c0,0.643-0.251,1.25-0.704,1.706  c-0.395,0.393-0.903,0.622-1.446,0.681c0.1-0.277,0.17-0.564,0.209-0.857l0.547-3.707C29.732,10.164,30.297,11.005,30.297,11.952z   M17.703,11.952c0-0.646,0.25-1.253,0.705-1.708c0.184-0.184,0.398-0.323,0.624-0.437l0.542,3.667  c0.038,0.288,0.111,0.574,0.212,0.857C18.613,14.169,17.703,13.17,17.703,11.952z M21.021,14.616  c-0.246-0.416-0.398-0.843-0.455-1.278l-0.781-5.282c-0.021-0.146,0.043-0.247,0.084-0.294C19.91,7.712,20.005,7.63,20.16,7.63h7.62  c0.147,0,0.239,0.081,0.28,0.128s0.106,0.15,0.085,0.297l-0.14,0.947c0,0.001-0.001,0.001-0.001,0.002c0,0.001,0,0.002,0,0.003  l-0.641,4.337c-0.06,0.449-0.211,0.875-0.454,1.271c-0.403,0.677-1.052,1.201-1.818,1.471c-0.105,0.035-0.22,0.07-0.339,0.098  c-0.481,0.116-1.072,0.118-1.582-0.001c-0.113-0.026-0.228-0.062-0.325-0.094C22.071,15.815,21.423,15.292,21.021,14.616z   M26.759,21.313h-5.518c0.209-0.617,0.794-1.063,1.48-1.063h2.528h0.028C25.965,20.25,26.55,20.695,26.759,21.313z"/></svg>