<?xml version="1.0" ?><!-- Uploaded to: SVG Repo, www.svgrepo.com, Generator: SVG Repo Mixer Tools -->
<svg width="800px" height="800px" viewBox="0 0 48 48" id="Layer_1" version="1.1" xml:space="preserve" xmlns="http://www.w3.org/2000/svg" xmlns:xlink="http://www.w3.org/1999/xlink"><style type="text/css">
	.st0{stroke:#8c9690;stroke-width:4;stroke-opacity:0.5}
</style><path class="st0" d="M19.402,23.543V13.74h0.421c1.127,0,2.045-0.917,2.045-2.045S20.95,9.65,19.823,9.65h-8.646  c-1.127,0-2.045,0.917-2.045,2.045s0.917,2.045,2.045,2.045h0.421v9.803C8.497,25.036,6.5,28.163,6.5,31.699  c0.031,3.667,3.138,6.65,6.925,6.65h4.149c3.787,0,6.894-2.983,6.925-6.645c0-0.003,0-0.081,0-0.084  C24.5,28.159,22.502,25.033,19.402,23.543z M10.132,11.695c0-0.576,0.469-1.045,1.045-1.045h8.646c0.576,0,1.045,0.469,1.045,1.045  s-0.469,1.045-1.045,1.045h-0.921h-6.804h-0.921C10.601,12.74,10.132,12.271,10.132,11.695z M18.402,13.74v9.37  c-0.037-0.013-0.075-0.021-0.112-0.033c-0.053-0.017-0.107-0.032-0.161-0.048c-0.235-0.073-0.472-0.135-0.713-0.187  c-0.047-0.01-0.094-0.02-0.142-0.029c-0.265-0.053-0.533-0.095-0.804-0.124c-0.021-0.002-0.042-0.006-0.062-0.008  c-0.3-0.03-0.602-0.05-0.909-0.05c-0.306,0-0.608,0.02-0.908,0.05c-0.024,0.002-0.048,0.006-0.071,0.009  c-0.267,0.029-0.53,0.069-0.79,0.121c-0.052,0.01-0.103,0.021-0.154,0.032c-0.234,0.051-0.464,0.112-0.693,0.182  c-0.059,0.018-0.119,0.034-0.178,0.053c-0.036,0.012-0.072,0.02-0.107,0.032v-9.37H18.402z M24,31.621l-0.5,0.07  c-0.026,3.12-2.685,5.658-5.925,5.658h-4.149c-3.24,0-5.898-2.538-5.925-5.729c0-3.177,1.883-6.05,4.802-7.321  c1.914-0.855,4.303-0.87,6.241-0.059c0.052,0.022,0.107,0.038,0.159,0.061c2.915,1.269,4.798,4.142,4.798,7.319H24z"/><path class="st0" d="M19.782,26.877c-0.025,0.005-2.478,0.508-4.101-0.125c-1.8-0.699-4.503,0.296-5.027,0.502  c-0.014,0.005-0.027,0.011-0.04,0.018c-0.076,0.034-0.143,0.087-0.194,0.155c-0.831,1.1-1.288,2.465-1.288,3.901  c0.021,2.614,2.232,4.741,4.931,4.741h2.873c2.699,0,4.911-2.127,4.931-4.745v-0.056c0-1.557-0.571-3.061-1.609-4.233  C20.14,26.9,19.956,26.84,19.782,26.877z M21.368,31.269l-0.5,0.052c-0.016,2.067-1.78,3.749-3.931,3.749h-2.873  c-2.151,0-3.915-1.682-3.931-3.801c0-1.115,0.356-2.221,1.004-3.129c0.582-0.218,2.821-0.984,4.181-0.456  c1.55,0.605,3.607,0.352,4.371,0.227c0.762,0.956,1.179,2.138,1.179,3.358H21.368z"/><path class="st0" d="M36.579,23.211v-6.5h0.288c1.073,0,1.946-0.873,1.946-1.946v-0.392c0-1.073-0.873-1.946-1.946-1.946h-7.569  c-1.073,0-1.946,0.873-1.946,1.946v0.392c0,1.073,0.873,1.946,1.946,1.946h0.14v6.501l-4.679,12.061  c-0.27,0.695-0.179,1.478,0.242,2.093c0.421,0.616,1.119,0.983,1.865,0.983h12.41c0.75,0,1.45-0.371,1.871-0.992  c0.421-0.62,0.506-1.406,0.229-2.103L36.579,23.211z M28.351,14.765v-0.392c0-0.521,0.424-0.946,0.946-0.946h7.569  c0.522,0,0.946,0.424,0.946,0.946v0.392c0,0.522-0.424,0.946-0.946,0.946h-0.788h-6.142h-0.64  C28.775,15.711,28.351,15.287,28.351,14.765z M40.317,36.797c-0.238,0.352-0.619,0.553-1.043,0.553h-12.41  c-0.422,0-0.801-0.2-1.04-0.548c-0.238-0.349-0.287-0.773-0.134-1.167l4.712-12.147c0.022-0.058,0.034-0.119,0.034-0.181v-6.595  h5.142v6.595c0,0.063,0.012,0.126,0.036,0.185l4.83,12.133C40.601,36.019,40.555,36.445,40.317,36.797z"/><path class="st0" d="M35.869,28.543c-0.004-0.01-0.013-0.016-0.017-0.026c-0.021-0.05-0.046-0.099-0.085-0.141  c-0.006-0.006-0.014-0.009-0.02-0.014c-0.019-0.019-0.042-0.031-0.064-0.047c-0.041-0.029-0.083-0.053-0.129-0.069  c-0.013-0.004-0.022-0.015-0.035-0.018c-0.014-0.004-0.027,0.002-0.041,0c-0.05-0.008-0.098-0.008-0.148-0.001  c-0.026,0.003-0.05,0.003-0.075,0.011c-0.069,0.02-0.136,0.052-0.193,0.104c-0.094,0.084-0.934,0.803-1.654,0.194  c-1.074-0.921-2.413-0.463-3.034-0.046c-0.024,0.016-0.058,0.045-0.079,0.064c-0.057,0.055-0.097,0.123-0.125,0.195  c0,0.001-0.001,0.001-0.001,0.002l-2.01,5.79c-0.053,0.153-0.029,0.322,0.065,0.454s0.246,0.21,0.407,0.21h8.901  c0.163,0,0.315-0.079,0.409-0.212s0.117-0.303,0.063-0.456L35.869,28.543z M29.333,34.205l1.721-4.958  c0.009-0.005,0.018-0.01,0.028-0.015c0.022-0.011,0.046-0.023,0.071-0.035c0.031-0.015,0.067-0.03,0.103-0.045  c0.028-0.012,0.054-0.023,0.084-0.034c0.068-0.025,0.141-0.049,0.219-0.068c0.016-0.004,0.034-0.005,0.05-0.009  c0.066-0.014,0.134-0.026,0.204-0.032c0.031-0.003,0.063-0.002,0.094-0.003c0.06-0.002,0.121,0,0.183,0.007  c0.035,0.004,0.069,0.009,0.104,0.016c0.064,0.012,0.129,0.032,0.193,0.057c0.031,0.011,0.062,0.021,0.092,0.035  c0.094,0.045,0.187,0.1,0.277,0.177c0.047,0.039,0.095,0.066,0.142,0.1c0.057,0.041,0.114,0.088,0.172,0.121  c0.022,0.013,0.044,0.019,0.065,0.031c0.084,0.045,0.169,0.088,0.254,0.118c0.017,0.006,0.035,0.008,0.052,0.014  c0.089,0.029,0.179,0.054,0.267,0.069c0.017,0.003,0.034,0.002,0.051,0.004c0.089,0.012,0.177,0.021,0.265,0.022  c0.001,0,0.001,0,0.002,0c0.002,0,0.004-0.001,0.005-0.001c0.166,0,0.327-0.024,0.482-0.06c0.018-0.004,0.036-0.007,0.054-0.011  c0.148-0.038,0.288-0.089,0.42-0.148c0.024-0.01,0.046-0.021,0.069-0.032c0.028-0.013,0.058-0.025,0.084-0.039l1.68,4.719H29.333z"/></svg>